<svg width="86" height="86" viewBox="0 0 86 86" fill="none" xmlns="http://www.w3.org/2000/svg">
<path d="M31.3238 1.49916C1.66279 9.85438 -8.50274 48.4277 13.2209 70.1513C21.8546 78.785 30.4883 82.2664 42.8819 82.2664C55.1362 82.2664 63.9092 78.785 72.1252 70.569C80.3412 62.3531 83.8225 53.5801 83.8225 41.3257C83.8225 29.0714 80.3412 20.2984 72.1252 12.0824C61.8204 1.77766 45.3885 -2.5392 31.3238 1.49916ZM59.5924 10.4114C72.9607 17.0956 80.8982 33.3883 77.5561 48.0099C74.3533 62.6316 64.1877 72.9364 49.7053 75.9999C34.6659 79.2028 18.791 71.5438 11.6891 57.6184C1.10577 36.8696 11.5498 13.1965 34.1089 7.06931C42.6034 4.70199 49.9839 5.67677 59.5924 10.4114Z" fill="#61B0B7"/>
<path d="M49.1483 37.1481C41.4894 44.8071 34.6659 51.0735 33.9697 51.0735C33.1342 51.0735 30.2098 48.8454 27.4247 46.0603C22.5509 41.3257 19.2088 40.7687 19.2088 44.6678C19.2088 46.6174 32.1594 59.4287 34.1089 59.4287C34.8052 59.4287 42.4642 52.3268 51.0979 43.5538C62.2382 32.4135 66.6943 26.9826 66.1373 25.4508C65.5803 24.1975 64.7448 23.2227 64.1878 23.2227C63.4915 23.2227 56.8073 29.4891 49.1483 37.1481Z" fill="#61B0B7"/>
</svg>
