<svg width="86" height="86" viewBox="0 0 86 86" fill="none" xmlns="http://www.w3.org/2000/svg">
<path d="M31.9702 1.483C10.7702 7.183 -3.02978 28.283 0.570216 49.483C4.67022 72.983 26.6702 89.083 49.4702 85.183C72.8702 81.183 89.0702 59.083 85.1702 36.483C80.7702 10.983 56.3702 -5.117 31.9702 1.483ZM53.6702 7.683C69.0702 12.483 79.8702 27.083 79.8702 42.883C79.8702 58.683 69.0702 73.283 53.6702 78.083C42.7702 81.383 31.0702 79.583 21.4702 72.983C12.4702 66.783 5.87022 54.083 5.87022 42.883C5.87022 36.283 9.27022 26.283 13.3702 20.683C22.3702 8.483 38.8702 3.183 53.6702 7.683Z" fill="#FA675C"/>
<path d="M26.5702 26.583C24.8702 28.183 26.2702 30.783 32.0702 36.583L38.2702 42.883L31.9702 49.283C25.5702 55.783 24.3702 58.983 28.2702 59.683C29.4702 59.983 32.2702 57.883 36.4702 53.783L42.8702 47.483L49.2702 53.783C53.4702 57.883 56.2702 59.983 57.4702 59.683C61.3702 58.983 60.1702 55.783 53.7702 49.283L47.4702 42.883L53.7702 36.483C57.8702 32.283 59.9702 29.483 59.6702 28.283C58.9702 24.383 55.7702 25.583 49.2702 31.983L42.8702 38.283L36.5702 32.083C30.7702 26.283 28.1702 24.883 26.5702 26.583Z" fill="#FA675C"/>
</svg>
